# xmcd
#
# Track frame offsets: 
#        150
#        14870
#        36552
#        49114
#        71206
#        84906
#        103133
#        129339
#        156731
#        168254
#
# Disc length: 2548 seconds
#
# Revision: 0
# Processed by: cddbd v1.5.2PL0 Copyright (c) Steve Scherf et al.
# Submitted via: ExactAudioCopy v0.99pb5
#
DISCID=8f09f20a
DTITLE=Stevenson and Easley - For The Record
DYEAR=2006
DGENRE=Blues
TTITLE0=Tell All Your Troubles Goodbye
TTITLE1=Danger Zone
TTITLE2=I Can't Stop It
TTITLE3=Small Fry
TTITLE4=Rockin' Chair Blues
TTITLE5=Up The Line
TTITLE6=Save Your Love For Me
TTITLE7=Hotdog Stand
TTITLE8=Chartreuse
TTITLE9=Something On Your Mind
EXTD=
EXTT0=
EXTT1=
EXTT2=
EXTT3=
EXTT4=
EXTT5=
EXTT6=
EXTT7=
EXTT8=
EXTT9=
PLAYORDER=
